<?xml version="1.0" encoding="UTF-8"?>
<svg width="752pt" height="752pt" version="1.1" viewBox="0 0 752 752" xmlns="http://www.w3.org/2000/svg">
 <g>
  <path d="m554.68 554.64h-357.36c-12.457-0.45312-23.777-7.3633-29.879-18.23-6.1016-10.871-6.1016-24.133 0-35.004 6.1016-10.867 17.422-17.777 29.879-18.23h357.36c12.457 0.45312 23.777 7.3633 29.879 18.23 6.1016 10.871 6.1016 24.133 0 35.004-6.1016 10.867-17.422 17.777-29.879 18.23z"/>
  <path d="m554.68 411.71h-357.36c-12.457-0.45703-23.777-7.3633-29.879-18.234-6.1016-10.867-6.1016-24.129 0-35 6.1016-10.867 17.422-17.777 29.879-18.23h357.36c12.457 0.45312 23.777 7.3633 29.879 18.23 6.1016 10.871 6.1016 24.133 0 35-6.1016 10.871-17.422 17.777-29.879 18.234z"/>
  <path d="m554.68 268.73h-357.36c-12.742 0-24.516-6.7969-30.883-17.828-6.3711-11.035-6.3711-24.629 0-35.66 6.3672-11.035 18.141-17.832 30.883-17.832h357.36c12.742 0 24.512 6.7969 30.883 17.832 6.3711 11.031 6.3711 24.625 0 35.66-6.3711 11.031-18.141 17.828-30.883 17.828z"/>
 </g>
</svg>
