<?xml version="1.0" encoding="UTF-8"?>
<!--752-->
<svg width="15pt" height="15pt" version="1.1" viewBox="0 0 752 752" xmlns="http://www.w3.org/2000/svg">
 <defs>
  <clipPath id="a">
   <path d="m204 139.21h344v473.58h-344z"/>
  </clipPath>
 </defs>
 <g clip-path="url(#a)">
  <path d="m376 139.21c94.926 0 171.92 76.996 171.92 171.92 0 99.145-98.09 226.77-161.38 297.44-5.2734 5.2734-13.711 5.2734-18.984 0-64.34-61.176-163.48-205.68-163.48-297.44 0-94.926 76.996-171.92 171.92-171.92zm0 26.367c-80.16 0-145.55 65.395-145.55 145.55 0 84.379 90.707 208.84 145.55 267.91 55.902-63.285 145.55-180.36 145.55-267.91 0-80.16-65.395-145.55-145.55-145.55z"/>
 </g>
 <path d="m376 225.7c47.465 0 85.434 39.027 85.434 85.434 0 47.465-37.973 85.434-85.434 85.434-46.41 0-85.434-37.973-85.434-85.434 0-46.41 39.027-85.434 85.434-85.434zm0 27.422c-31.641 0-58.012 26.367-58.012 58.012 0 32.695 26.367 59.066 58.012 59.066 32.695 0 59.066-26.367 59.066-59.066 0-31.641-26.367-58.012-59.066-58.012z"/>
</svg>
